<mxfile host="app.diagrams.net" modified="2023-12-06T09:54:23.241Z" agent="Mozilla/5.0 (Windows NT 10.0; Win64; x64) AppleWebKit/537.36 (KHTML, like Gecko) Chrome/119.0.0.0 Safari/537.36" etag="f05qU-vA3DZ3jnL6j5Cv" version="22.1.5" type="device">
  <diagram name="Page-1" id="ug-Es4n9uFa_-xvzicF-">
    <mxGraphModel dx="794" dy="432" grid="1" gridSize="10" guides="1" tooltips="1" connect="1" arrows="1" fold="1" page="1" pageScale="1" pageWidth="827" pageHeight="1169" math="0" shadow="0">
      <root>
        <mxCell id="0" />
        <mxCell id="1" parent="0" />
        <mxCell id="TQn1zweGT2QIhc5Fmaw2-3" value="Animal" style="swimlane;fontStyle=1;align=center;verticalAlign=top;childLayout=stackLayout;horizontal=1;startSize=26;horizontalStack=0;resizeParent=1;resizeParentMax=0;resizeLast=0;collapsible=1;marginBottom=0;whiteSpace=wrap;html=1;" parent="1" vertex="1">
          <mxGeometry x="160" y="160" width="160" height="124" as="geometry" />
        </mxCell>
        <mxCell id="TQn1zweGT2QIhc5Fmaw2-4" value="+ nama : str(40)&lt;br&gt;+sifat : str(40)&lt;br&gt;+size : str(20)&lt;br&gt;+leg : int(!0)" style="text;strokeColor=none;fillColor=none;align=left;verticalAlign=top;spacingLeft=4;spacingRight=4;overflow=hidden;rotatable=0;points=[[0,0.5],[1,0.5]];portConstraint=eastwest;whiteSpace=wrap;html=1;" parent="TQn1zweGT2QIhc5Fmaw2-3" vertex="1">
          <mxGeometry y="26" width="160" height="64" as="geometry" />
        </mxCell>
        <mxCell id="TQn1zweGT2QIhc5Fmaw2-5" value="" style="line;strokeWidth=1;fillColor=none;align=left;verticalAlign=middle;spacingTop=-1;spacingLeft=3;spacingRight=3;rotatable=0;labelPosition=right;points=[];portConstraint=eastwest;strokeColor=inherit;" parent="TQn1zweGT2QIhc5Fmaw2-3" vertex="1">
          <mxGeometry y="90" width="160" height="8" as="geometry" />
        </mxCell>
        <mxCell id="TQn1zweGT2QIhc5Fmaw2-6" value="&amp;nbsp;" style="text;strokeColor=none;fillColor=none;align=left;verticalAlign=top;spacingLeft=4;spacingRight=4;overflow=hidden;rotatable=0;points=[[0,0.5],[1,0.5]];portConstraint=eastwest;whiteSpace=wrap;html=1;" parent="TQn1zweGT2QIhc5Fmaw2-3" vertex="1">
          <mxGeometry y="98" width="160" height="26" as="geometry" />
        </mxCell>
        <mxCell id="TQn1zweGT2QIhc5Fmaw2-7" value="Mamalia" style="swimlane;fontStyle=1;align=center;verticalAlign=top;childLayout=stackLayout;horizontal=1;startSize=26;horizontalStack=0;resizeParent=1;resizeParentMax=0;resizeLast=0;collapsible=1;marginBottom=0;whiteSpace=wrap;html=1;" parent="1" vertex="1">
          <mxGeometry x="440" y="90" width="160" height="100" as="geometry" />
        </mxCell>
        <mxCell id="TQn1zweGT2QIhc5Fmaw2-8" value="+ bisa_jalan : str(30)&lt;br&gt;+jenis_mamalia : str(20)" style="text;strokeColor=none;fillColor=none;align=left;verticalAlign=top;spacingLeft=4;spacingRight=4;overflow=hidden;rotatable=0;points=[[0,0.5],[1,0.5]];portConstraint=eastwest;whiteSpace=wrap;html=1;" parent="TQn1zweGT2QIhc5Fmaw2-7" vertex="1">
          <mxGeometry y="26" width="160" height="44" as="geometry" />
        </mxCell>
        <mxCell id="TQn1zweGT2QIhc5Fmaw2-9" value="" style="line;strokeWidth=1;fillColor=none;align=left;verticalAlign=middle;spacingTop=-1;spacingLeft=3;spacingRight=3;rotatable=0;labelPosition=right;points=[];portConstraint=eastwest;strokeColor=inherit;" parent="TQn1zweGT2QIhc5Fmaw2-7" vertex="1">
          <mxGeometry y="70" width="160" height="8" as="geometry" />
        </mxCell>
        <mxCell id="TQn1zweGT2QIhc5Fmaw2-10" value="&amp;nbsp;" style="text;strokeColor=none;fillColor=none;align=left;verticalAlign=top;spacingLeft=4;spacingRight=4;overflow=hidden;rotatable=0;points=[[0,0.5],[1,0.5]];portConstraint=eastwest;whiteSpace=wrap;html=1;" parent="TQn1zweGT2QIhc5Fmaw2-7" vertex="1">
          <mxGeometry y="78" width="160" height="22" as="geometry" />
        </mxCell>
        <mxCell id="TQn1zweGT2QIhc5Fmaw2-11" value="" style="endArrow=block;endFill=0;endSize=12;html=1;rounded=0;exitX=0;exitY=0.5;exitDx=0;exitDy=0;" parent="1" source="TQn1zweGT2QIhc5Fmaw2-8" target="TQn1zweGT2QIhc5Fmaw2-4" edge="1">
          <mxGeometry width="160" relative="1" as="geometry">
            <mxPoint x="480" y="200" as="sourcePoint" />
            <mxPoint x="640" y="200" as="targetPoint" />
          </mxGeometry>
        </mxCell>
        <mxCell id="TQn1zweGT2QIhc5Fmaw2-12" value="Aves" style="swimlane;fontStyle=1;align=center;verticalAlign=top;childLayout=stackLayout;horizontal=1;startSize=26;horizontalStack=0;resizeParent=1;resizeParentMax=0;resizeLast=0;collapsible=1;marginBottom=0;whiteSpace=wrap;html=1;" parent="1" vertex="1">
          <mxGeometry x="440" y="250" width="160" height="94" as="geometry" />
        </mxCell>
        <mxCell id="TQn1zweGT2QIhc5Fmaw2-13" value="+bisa_terbang : str(30)&lt;br&gt;+jenis_aves : str(20)" style="text;strokeColor=none;fillColor=none;align=left;verticalAlign=top;spacingLeft=4;spacingRight=4;overflow=hidden;rotatable=0;points=[[0,0.5],[1,0.5]];portConstraint=eastwest;whiteSpace=wrap;html=1;" parent="TQn1zweGT2QIhc5Fmaw2-12" vertex="1">
          <mxGeometry y="26" width="160" height="34" as="geometry" />
        </mxCell>
        <mxCell id="TQn1zweGT2QIhc5Fmaw2-14" value="" style="line;strokeWidth=1;fillColor=none;align=left;verticalAlign=middle;spacingTop=-1;spacingLeft=3;spacingRight=3;rotatable=0;labelPosition=right;points=[];portConstraint=eastwest;strokeColor=inherit;" parent="TQn1zweGT2QIhc5Fmaw2-12" vertex="1">
          <mxGeometry y="60" width="160" height="8" as="geometry" />
        </mxCell>
        <mxCell id="TQn1zweGT2QIhc5Fmaw2-15" value="&amp;nbsp;" style="text;strokeColor=none;fillColor=none;align=left;verticalAlign=top;spacingLeft=4;spacingRight=4;overflow=hidden;rotatable=0;points=[[0,0.5],[1,0.5]];portConstraint=eastwest;whiteSpace=wrap;html=1;" parent="TQn1zweGT2QIhc5Fmaw2-12" vertex="1">
          <mxGeometry y="68" width="160" height="26" as="geometry" />
        </mxCell>
        <mxCell id="TQn1zweGT2QIhc5Fmaw2-16" value="" style="endArrow=block;endFill=0;endSize=12;html=1;rounded=0;exitX=0;exitY=0.5;exitDx=0;exitDy=0;entryX=1.006;entryY=0;entryDx=0;entryDy=0;entryPerimeter=0;" parent="1" source="TQn1zweGT2QIhc5Fmaw2-13" target="TQn1zweGT2QIhc5Fmaw2-5" edge="1">
          <mxGeometry width="160" relative="1" as="geometry">
            <mxPoint x="400" y="220" as="sourcePoint" />
            <mxPoint x="430" y="290" as="targetPoint" />
          </mxGeometry>
        </mxCell>
        <mxCell id="TQn1zweGT2QIhc5Fmaw2-17" value="Ayam" style="swimlane;fontStyle=1;align=center;verticalAlign=top;childLayout=stackLayout;horizontal=1;startSize=26;horizontalStack=0;resizeParent=1;resizeParentMax=0;resizeLast=0;collapsible=1;marginBottom=0;whiteSpace=wrap;html=1;" parent="1" vertex="1">
          <mxGeometry x="300" y="430" width="160" height="116" as="geometry" />
        </mxCell>
        <mxCell id="TQn1zweGT2QIhc5Fmaw2-18" value="-jenis_ayam : str(20)&lt;br&gt;-bisa_diadu : str(30)" style="text;strokeColor=none;fillColor=none;align=left;verticalAlign=top;spacingLeft=4;spacingRight=4;overflow=hidden;rotatable=0;points=[[0,0.5],[1,0.5]];portConstraint=eastwest;whiteSpace=wrap;html=1;" parent="TQn1zweGT2QIhc5Fmaw2-17" vertex="1">
          <mxGeometry y="26" width="160" height="34" as="geometry" />
        </mxCell>
        <mxCell id="TQn1zweGT2QIhc5Fmaw2-19" value="" style="line;strokeWidth=1;fillColor=none;align=left;verticalAlign=middle;spacingTop=-1;spacingLeft=3;spacingRight=3;rotatable=0;labelPosition=right;points=[];portConstraint=eastwest;strokeColor=inherit;" parent="TQn1zweGT2QIhc5Fmaw2-17" vertex="1">
          <mxGeometry y="60" width="160" height="8" as="geometry" />
        </mxCell>
        <mxCell id="TQn1zweGT2QIhc5Fmaw2-20" value="+suara()&lt;br&gt;+tampil()" style="text;strokeColor=none;fillColor=none;align=left;verticalAlign=top;spacingLeft=4;spacingRight=4;overflow=hidden;rotatable=0;points=[[0,0.5],[1,0.5]];portConstraint=eastwest;whiteSpace=wrap;html=1;" parent="TQn1zweGT2QIhc5Fmaw2-17" vertex="1">
          <mxGeometry y="68" width="160" height="48" as="geometry" />
        </mxCell>
        <mxCell id="TQn1zweGT2QIhc5Fmaw2-23" value="" style="endArrow=block;endFill=0;endSize=12;html=1;rounded=0;exitX=0.75;exitY=0;exitDx=0;exitDy=0;entryX=0.231;entryY=1.077;entryDx=0;entryDy=0;entryPerimeter=0;" parent="1" source="TQn1zweGT2QIhc5Fmaw2-17" target="TQn1zweGT2QIhc5Fmaw2-15" edge="1">
          <mxGeometry width="160" relative="1" as="geometry">
            <mxPoint x="400" y="320" as="sourcePoint" />
            <mxPoint x="460" y="344" as="targetPoint" />
          </mxGeometry>
        </mxCell>
        <mxCell id="TQn1zweGT2QIhc5Fmaw2-24" value="Merpati" style="swimlane;fontStyle=1;align=center;verticalAlign=top;childLayout=stackLayout;horizontal=1;startSize=26;horizontalStack=0;resizeParent=1;resizeParentMax=0;resizeLast=0;collapsible=1;marginBottom=0;whiteSpace=wrap;html=1;" parent="1" vertex="1">
          <mxGeometry x="530" y="436" width="160" height="110" as="geometry" />
        </mxCell>
        <mxCell id="TQn1zweGT2QIhc5Fmaw2-25" value="&amp;nbsp;" style="text;strokeColor=none;fillColor=none;align=left;verticalAlign=top;spacingLeft=4;spacingRight=4;overflow=hidden;rotatable=0;points=[[0,0.5],[1,0.5]];portConstraint=eastwest;whiteSpace=wrap;html=1;" parent="TQn1zweGT2QIhc5Fmaw2-24" vertex="1">
          <mxGeometry y="26" width="160" height="26" as="geometry" />
        </mxCell>
        <mxCell id="TQn1zweGT2QIhc5Fmaw2-26" value="" style="line;strokeWidth=1;fillColor=none;align=left;verticalAlign=middle;spacingTop=-1;spacingLeft=3;spacingRight=3;rotatable=0;labelPosition=right;points=[];portConstraint=eastwest;strokeColor=inherit;" parent="TQn1zweGT2QIhc5Fmaw2-24" vertex="1">
          <mxGeometry y="52" width="160" height="8" as="geometry" />
        </mxCell>
        <mxCell id="TQn1zweGT2QIhc5Fmaw2-27" value="+suara()&lt;br&gt;+tampil()" style="text;strokeColor=none;fillColor=none;align=left;verticalAlign=top;spacingLeft=4;spacingRight=4;overflow=hidden;rotatable=0;points=[[0,0.5],[1,0.5]];portConstraint=eastwest;whiteSpace=wrap;html=1;" parent="TQn1zweGT2QIhc5Fmaw2-24" vertex="1">
          <mxGeometry y="60" width="160" height="50" as="geometry" />
        </mxCell>
        <mxCell id="TQn1zweGT2QIhc5Fmaw2-28" value="" style="endArrow=block;endFill=0;endSize=12;html=1;rounded=0;exitX=0.623;exitY=0.015;exitDx=0;exitDy=0;exitPerimeter=0;entryX=0.773;entryY=0.974;entryDx=0;entryDy=0;entryPerimeter=0;" parent="1" source="TQn1zweGT2QIhc5Fmaw2-24" target="TQn1zweGT2QIhc5Fmaw2-15" edge="1">
          <mxGeometry width="160" relative="1" as="geometry">
            <mxPoint x="680" y="493" as="sourcePoint" />
            <mxPoint x="560" y="350" as="targetPoint" />
          </mxGeometry>
        </mxCell>
      </root>
    </mxGraphModel>
  </diagram>
</mxfile>
